<?xml version="1.0" standalone="no"?>
<!DOCTYPE svg PUBLIC "-//W3C//DTD SVG 20010904//EN"
 "http://www.w3.org/TR/2001/REC-SVG-20010904/DTD/svg10.dtd">
<svg version="1.0" xmlns="http://www.w3.org/2000/svg"
 width="366.000000pt" height="138.000000pt" viewBox="0 0 366.000000 138.000000"
 preserveAspectRatio="xMidYMid meet">

<g transform="translate(0.000000,138.000000) scale(0.100000,-0.100000)">
  <!-- White background rectangle -->
  <rect width="3660" height="1380" fill="#FFFFFF" />
  
  <g fill="#000000" stroke="none">
    <path d="M0 1370 c0 -6 58 -10 155 -10 l155 0 0 -255 0 -255 -155 0 -155 0 0
    -150 0 -150 155 0 155 0 0 -265 0 -265 -155 0 c-97 0 -155 -4 -155 -10 0 -7
    503 -10 1493 -9 873 1 1467 5 1432 10 -79 11 -216 54 -285 89 -99 51 -97 40
    -39 165 27 60 52 111 54 113 2 2 28 -10 57 -26 29 -17 96 -46 148 -64 89 -30
    104 -32 230 -33 121 0 139 2 177 22 57 31 83 67 83 116 0 53 -48 99 -128 123
    -31 10 -61 21 -67 26 -5 5 101 7 235 6 l245 -3 12 -35 c10 -28 12 53 12 418
    l1 452 -207 -1 c-137 -1 -191 -4 -158 -9 119 -18 305 -86 305 -111 0 -13 -80
    -212 -90 -222 -4 -5 -30 3 -57 17 -108 54 -179 71 -308 71 -102 0 -127 -3
    -167 -22 -55 -25 -88 -71 -88 -123 0 -48 23 -78 84 -106 l51 -24 -216 0 -216
    0 -7 38 c-31 191 60 354 245 436 47 20 79 29 184 50 11 2 -212 4 -495 4 -452
    0 -508 -1 -454 -13 147 -32 270 -127 313 -240 24 -63 32 -176 17 -242 l-8 -33
    -159 0 -160 0 8 23 c4 12 8 53 8 90 0 66 -1 70 -37 102 -47 43 -104 59 -195
    52 -87 -6 -147 -32 -206 -86 l-45 -42 -111 72 -111 71 20 28 c69 97 246 195
    385 213 17 2 -378 5 -877 6 -600 0 -908 -2 -908 -9z m1220 -265 l0 -255 -155
    0 -155 0 0 255 0 255 155 0 155 0 0 -255z m-1100 -361 c0 -34 1 -35 33 -32 28
    3 32 7 35 36 2 20 9 32 18 32 11 0 14 -18 14 -85 0 -69 -3 -85 -15 -85 -10 0
    -15 11 -15 35 0 33 -2 35 -35 35 -33 0 -35 -2 -35 -35 0 -28 -4 -35 -20 -35
    -18 0 -20 7 -20 85 0 78 2 85 20 85 16 0 20 -7 20 -36z m479 -27 c44 -97 46
    -107 22 -107 -11 0 -22 9 -26 20 -5 15 -15 20 -40 20 -24 0 -38 -6 -45 -20
    -10 -19 -40 -28 -40 -13 0 4 14 42 32 85 41 100 58 103 97 15z m415 43 c18
    -18 -8 -34 -34 -20 -46 24 -96 -46 -55 -80 8 -6 31 -10 51 -8 46 4 55 -15 16
    -31 -37 -16 -77 -5 -102 26 -28 36 -25 70 10 105 27 26 36 30 67 25 20 -4 41
    -11 47 -17z m296 -17 l1 -38 33 38 c18 20 41 37 50 37 23 0 20 -13 -9 -40 -32
    -30 -31 -36 6 -85 27 -35 28 -40 12 -44 -10 -2 -28 9 -44 29 -30 35 -49 33
    -49 -6 0 -17 -5 -24 -20 -24 -18 0 -20 7 -20 85 0 78 2 85 20 85 16 0 20 -7
    20 -37z m440 17 c26 -26 25 -42 -6 -79 l-26 -31 26 0 c19 0 26 -5 26 -20 0
    -18 -7 -20 -60 -20 -73 0 -76 10 -20 65 22 21 40 45 40 52 0 20 -28 27 -46 13
    -12 -10 -17 -11 -27 -1 -9 10 -8 15 7 27 28 20 63 17 86 -6z m364 14 c9 -3 16
    -13 16 -21 0 -10 -10 -13 -36 -11 -52 4 -55 -18 -5 -32 52 -14 67 -53 31 -82
    -25 -20 -47 -22 -85 -8 -41 16 -26 35 24 31 49 -3 54 18 7 30 -15 4 -34 13
    -42 20 -46 38 27 97 90 73z m316 -31 l1 -38 32 38 c18 20 40 37 50 37 25 0 21
    -12 -12 -44 l-30 -29 35 -46 c31 -40 33 -46 18 -50 -11 -2 -30 10 -46 28 -31
    35 -48 33 -48 -5 0 -17 -5 -24 -20 -24 -18 0 -20 7 -20 85 0 78 2 85 20 85 16
    0 20 -7 20 -37z m390 -48 c0 -78 -2 -85 -20 -85 -18 0 -20 7 -20 85 0 78 2 85
    20 85 18 0 20 -7 20 -85z m300 21 l0 -65 37 -3 c27 -2 39 -8 41 -20 3 -16 -5
    -18 -57 -18 l-61 0 0 85 c0 78 2 85 20 85 18 0 20 -7 20 -64z m360 0 l0 -65
    37 -3 c27 -2 39 -8 41 -20 3 -16 -5 -18 -57 -18 l-61 0 0 85 c0 78 2 85 20 85
    18 0 20 -7 20 -64z m-2260 -431 l0 -265 -155 0 -155 0 0 258 c0 142 3 262 7
    265 3 4 73 7 155 7 l148 0 0 -265z m930 258 c0 -5 -61 -66 -136 -138 l-137
    -130 284 0 284 0 0 -160 0 -160 -440 0 -440 0 0 73 c0 72 1 75 26 81 35 9 54
    28 54 54 0 20 -7 26 -31 31 -49 10 -49 35 0 45 20 4 25 11 25 34 0 23 -5 30
    -25 34 -49 10 -49 35 0 45 20 4 25 11 25 34 0 23 -5 30 -25 34 -50 10 -50 36
    0 45 20 4 25 11 25 34 0 24 2 25 163 25 89 0 162 -4 162 -8z m515 -603 l0 -85
    -390 0 -390 0 0 85 0 85 390 0 390 0 0 -85z m200 -125 l0 -70 -590 0 -590 0 0
    70 0 70 590 0 590 0 0 -70z m450 25 l0 -45 -390 0 -390 0 0 45 0 45 390 0 390
    0 0 -45z"/>
  </g>
</g>
</svg>
